<svg t="1612245483164" class="icon" viewBox="0 0 1024 1024" version="1.1" xmlns="http://www.w3.org/2000/svg" p-id="1649" width="64" height="64"><path d="M870.4 51.2a102.4 102.4 0 0 1 102.4 102.4v716.8a102.4 102.4 0 0 1-102.4 102.4H153.6a102.4 102.4 0 0 1-102.4-102.4V153.6a102.4 102.4 0 0 1 102.4-102.4h716.8z m0 81.92H153.6a20.48 20.48 0 0 0-20.0704 16.384L133.12 153.6v716.8a20.48 20.48 0 0 0 16.384 20.0704L153.6 890.88h716.8a20.48 20.48 0 0 0 20.0704-16.384L890.88 870.4V153.6a20.48 20.48 0 0 0-16.384-20.0704L870.4 133.12zM783.36 665.6a35.84 35.84 0 0 1 35.84 35.84v10.24a35.84 35.84 0 0 1-35.84 35.84H240.64a35.84 35.84 0 0 1-35.84-35.84v-10.24a35.84 35.84 0 0 1 35.84-35.84h542.72z m-44.4928-438.3744a40.96 40.96 0 0 1 64.9216 48.64l-3.0208 4.7104-169.9328 226.56-208.7424-52.1216-137.1136 137.1648-4.608 3.9424a40.96 40.96 0 0 1-57.344-57.2928l3.9936-4.608 169.984-169.984 200.96 50.2272L735.232 231.424l3.6352-4.1984z" p-id="1650"></path></svg>